<svg xmlns="http://www.w3.org/2000/svg" xmlns:xlink="http://www.w3.org/1999/xlink" width="118" height="118" viewBox="0 0 118 118">
  <defs>
    <filter id="Trazado_982547" x="0" y="0" width="118" height="118" filterUnits="userSpaceOnUse">
      <feOffset dy="3" input="SourceAlpha"/>
      <feGaussianBlur stdDeviation="3" result="blur"/>
      <feFlood flood-opacity="0.161"/>
      <feComposite operator="in" in2="blur"/>
      <feComposite in="SourceGraphic"/>
    </filter>
  </defs>
  <g id="Grupo_1203063" data-name="Grupo 1203063" transform="translate(-741.25 -1353.932)">
    <g id="Grupo_1202667" data-name="Grupo 1202667" transform="translate(752.75 1362.432)">
      <g id="Grupo_1174813" data-name="Grupo 1174813" transform="translate(-2.5 -2.5)">
        <g id="Grupo_1201680" data-name="Grupo 1201680">
          <g id="Grupo_1201330" data-name="Grupo 1201330">
            <g id="Grupo_1172010" data-name="Grupo 1172010">
              <g id="Grupo_1171046" data-name="Grupo 1171046">
                <g id="Grupo_1148525" data-name="Grupo 1148525">
                  <g transform="matrix(1, 0, 0, 1, -9, -6)" filter="url(#Trazado_982547)">
                    <g id="Trazado_982547-2" data-name="Trazado 982547" transform="translate(9 6)" fill="#f3e6fd">
                      <path d="M 50 98.5 C 43.45188522338867 98.5 37.10042953491211 97.21787261962891 31.12207221984863 94.68923950195312 C 25.34691429138184 92.24655914306641 20.15997123718262 88.74931335449219 15.70532894134521 84.29468536376953 C 11.2506856918335 79.84004211425781 7.753442764282227 74.65309906005859 5.310757160186768 68.8779296875 C 2.782128572463989 62.89957046508789 1.5 56.54811477661133 1.5 50 C 1.5 43.45188522338867 2.782128572463989 37.10042953491211 5.310757160186768 31.12207221984863 C 7.753442764282227 25.34691429138184 11.2506856918335 20.15997123718262 15.70532894134521 15.70532894134521 C 20.15997123718262 11.2506856918335 25.34691429138184 7.753442764282227 31.12207221984863 5.310757160186768 C 37.10042953491211 2.782128572463989 43.45188522338867 1.5 50 1.5 C 56.54811477661133 1.5 62.89957046508789 2.782128572463989 68.8779296875 5.310757160186768 C 74.65309906005859 7.753442764282227 79.84004211425781 11.2506856918335 84.29468536376953 15.70532894134521 C 88.74931335449219 20.15997123718262 92.24655914306641 25.34691429138184 94.68923950195312 31.12207221984863 C 97.21787261962891 37.10042953491211 98.5 43.45188522338867 98.5 50 C 98.5 56.54811477661133 97.21787261962891 62.89957046508789 94.68923950195312 68.8779296875 C 92.24655914306641 74.65309906005859 88.74931335449219 79.84004211425781 84.29468536376953 84.29468536376953 C 79.84004211425781 88.74931335449219 74.65309906005859 92.24655914306641 68.8779296875 94.68923950195312 C 62.89957046508789 97.21787261962891 56.54811477661133 98.5 50 98.5 Z" stroke="none"/>
                      <path d="M 50 3 C 43.65372467041016 3 37.49886322021484 4.242263793945312 31.70639801025391 6.6922607421875 C 26.11003112792969 9.059326171875 21.08335113525391 12.44861602783203 16.76598358154297 16.76598358154297 C 12.44861602783203 21.08335113525391 9.059326171875 26.11003112792969 6.6922607421875 31.70639801025391 C 4.242263793945312 37.49886322021484 3 43.65372467041016 3 50 C 3 56.34627532958984 4.242263793945312 62.50113677978516 6.6922607421875 68.29360198974609 C 9.059326171875 73.88996887207031 12.44861602783203 78.91666412353516 16.76598358154297 83.23401641845703 C 21.08335113525391 87.55138397216797 26.11003112792969 90.940673828125 31.70639801025391 93.3077392578125 C 37.49886322021484 95.75773620605469 43.65372467041016 97 50 97 C 56.34627532958984 97 62.50113677978516 95.75773620605469 68.29360198974609 93.3077392578125 C 73.88996887207031 90.940673828125 78.91666412353516 87.55138397216797 83.23401641845703 83.23401641845703 C 87.55138397216797 78.91666412353516 90.940673828125 73.88996887207031 93.3077392578125 68.29360198974609 C 95.75773620605469 62.50113677978516 97 56.34627532958984 97 50 C 97 43.65372467041016 95.75773620605469 37.49886322021484 93.3077392578125 31.70639801025391 C 90.940673828125 26.11003112792969 87.55138397216797 21.08335113525391 83.23401641845703 16.76598358154297 C 78.91666412353516 12.44861602783203 73.88996887207031 9.059326171875 68.29360198974609 6.6922607421875 C 62.50113677978516 4.242263793945312 56.34627532958984 3 50 3 M 50 0 C 77.61424255371094 0 100 22.38577270507812 100 50 C 100 77.61424255371094 77.61424255371094 100 50 100 C 22.38577270507812 100 0 77.61424255371094 0 50 C 0 22.38577270507812 22.38577270507812 0 50 0 Z" stroke="none" fill="#951bf1"/>
                    </g>
                  </g>
                </g>
              </g>
            </g>
          </g>
        </g>
      </g>
    </g>
    <g id="artificial-intelligence_12429417" transform="translate(739.879 1332.032)">
      <path id="Trazado_1042638" data-name="Trazado 1042638" d="M154.285,107.259h8.336A4.391,4.391,0,0,0,167,102.877V96.7c8.705-2.39,4.286-4.259,0-15.084V76.306a24.421,24.421,0,1,0-45.687,12.011v24.152h32.969Z" transform="translate(-78.497 -4.278)" fill="#f1cbbc" fill-rule="evenodd"/>
      <path id="Trazado_1042639" data-name="Trazado 1042639" d="M209.11,127.377h17.641V147.7H206.429V130.058Z" transform="translate(-153.665 -68.566)" fill="#615260" fill-rule="evenodd"/>
      <path id="Trazado_1042640" data-name="Trazado 1042640" d="M53.576,321.029a11.334,11.334,0,0,0,0-3.263,1.4,1.4,0,0,0-1.4-1.205A2.835,2.835,0,0,1,49.72,312.3a1.4,1.4,0,0,0-.348-1.814,11.458,11.458,0,0,0-2.823-1.63,1.4,1.4,0,0,0-1.745.606,2.835,2.835,0,0,1-4.916,0,1.4,1.4,0,0,0-1.742-.606,11.334,11.334,0,0,0-2.827,1.629,1.4,1.4,0,0,0-.347,1.814,2.835,2.835,0,0,1-2.459,4.258,1.4,1.4,0,0,0-1.4,1.207,11.332,11.332,0,0,0,0,3.263,1.4,1.4,0,0,0,1.4,1.206,2.835,2.835,0,0,1,2.457,4.258,1.4,1.4,0,0,0,.348,1.814,11.459,11.459,0,0,0,2.822,1.63,1.4,1.4,0,0,0,1.745-.606,2.835,2.835,0,0,1,4.916,0,1.4,1.4,0,0,0,1.742.606,11.332,11.332,0,0,0,2.827-1.629,1.4,1.4,0,0,0,.347-1.814,2.835,2.835,0,0,1,2.459-4.258,1.4,1.4,0,0,0,1.4-1.207Zm-7.886.3a3.861,3.861,0,1,1-1.413-5.275,3.861,3.861,0,0,1,1.413,5.275Z" transform="translate(-4.271 -223.028)" fill="#ffd266" fill-rule="evenodd"/>
      <path id="Trazado_1042641" data-name="Trazado 1042641" d="M40.775,97.93a3.119,3.119,0,1,1-5.4-3.12,3.091,3.091,0,0,1,1.894-1.452,3.253,3.253,0,0,1,.812-.111,3.128,3.128,0,0,1,2.7,4.684Zm-.4-5.545a4.6,4.6,0,1,0-2.309,8.589,4.6,4.6,0,0,0,2.309-8.589ZM92.66,89.528c-.343.771-1.685,1.445-4.352,2.175a.744.744,0,0,0-.546.716V98.6a3.644,3.644,0,0,1-3.64,3.641H82.638V77.125a.725.725,0,0,0-.154-.452L80.37,73.914a.744.744,0,0,0-.589-.285H73.826V71.51H84.208l3.554,4.155v1.668a.767.767,0,0,0,.052.278c1.124,2.835,2.251,5.052,3.157,6.838,1.266,2.495,2.1,4.142,1.689,5.08ZM75.786,102.238h5.368V77.375l-1.739-2.265H73.826v4.023a.743.743,0,0,1-.742.744H69.061v6.643l1.747,1.4a.739.739,0,0,1,.279.577v18.956h3.956v-4.468A.743.743,0,0,1,75.786,102.238Zm-32.227,4.9a11.992,11.992,0,0,0,2-1.272,2.141,2.141,0,0,0,.529-2.773A2.089,2.089,0,0,1,47.9,99.951h.008A2.139,2.139,0,0,0,50.037,98.1a12.055,12.055,0,0,0,0-3.474,2.14,2.14,0,0,0-2.129-1.841h0a2.09,2.09,0,0,1-1.812-3.141,2.13,2.13,0,0,0-.531-2.766,12.124,12.124,0,0,0-2-1.279V84.038a.778.778,0,0,0-.1-.368c-.09-.153-.175-.313-.261-.48l6.532-8.082h2.286v4.023a.743.743,0,0,0,.742.744h4.022v5.288l-4.378,3.322a.757.757,0,0,0-.293.6v18.366H43.559Zm-2.385-1.2a.666.666,0,0,0,.825.285,10.656,10.656,0,0,0,2.643-1.522.666.666,0,0,0,.164-.862,3.575,3.575,0,0,1,3.1-5.372h.008a.665.665,0,0,0,.66-.57,10.585,10.585,0,0,0,0-3.05.666.666,0,0,0-.66-.57h0A3.575,3.575,0,0,1,44.8,88.9a.666.666,0,0,0-.165-.862A10.744,10.744,0,0,0,42,86.519a.66.66,0,0,0-.826.285,3.575,3.575,0,0,1-6.2.007.661.661,0,0,0-.825-.292,10.668,10.668,0,0,0-2.643,1.522.666.666,0,0,0-.164.862,3.575,3.575,0,0,1-3.1,5.372h-.008a.665.665,0,0,0-.66.57,10.585,10.585,0,0,0,0,3.05.659.659,0,0,0,.66.57h0a3.576,3.576,0,0,1,3.1,5.372.666.666,0,0,0,.164.862,10.524,10.524,0,0,0,2.639,1.522.66.66,0,0,0,.826-.285,3.578,3.578,0,0,1,6.2,0ZM40.411,71.51c0,.174-.007.347-.007.521a23.692,23.692,0,0,0,2.075,9.694L48.8,73.9a.74.74,0,0,1,.577-.271H52.02V71.51ZM52.02,66.43H41.075a23.527,23.527,0,0,1,3.607-7.956l3.235,5.476a.739.739,0,0,0,.639.368H52.02Zm0,3.6H40.49c.06-.716.151-1.418.273-2.112H52.019V70.03ZM54.5,50.378a23.826,23.826,0,0,0-8.851,6.81l3.332,5.643H52.02V61.49a.738.738,0,0,1,.217-.521l2.681-2.682a.741.741,0,0,1,.525-.215h1.341v-2.3L54.768,54.1a.759.759,0,0,1-.269-.577Zm9.481,7.692H61.866V48.453q1.045-.094,2.114-.1Zm3.6-3.162v3.162H65.463v-9.68a23.659,23.659,0,0,1,5.042.841V53L67.99,54.242a.743.743,0,0,0-.413.667ZM58,54.846l-2.017-1.668v-3.4a23.256,23.256,0,0,1,4.4-1.133v9.43H58.268V55.423A.758.758,0,0,0,58,54.846ZM53.5,78.389V61.8l2.246-2.251H72.342V78.389H53.5Zm6.124,13.787,1.963-1.591a.742.742,0,0,0,.275-.577V79.876H63.98v27.573H59.628Zm-1.36-6.643a.743.743,0,0,1-.293.591L53.6,89.445v18h4.547V91.821a.741.741,0,0,1,.275-.577l1.963-1.591V79.876H58.268v5.657Zm9.588,1.925,1.747,1.4v18.6h-4.14V79.876h2.114v7A.742.742,0,0,0,67.856,87.458Zm16.5-27.65a23.781,23.781,0,0,0-12.368-10.1v3.745a.742.742,0,0,1-.413.667l-2.515,1.244v2.7h4.023a.742.742,0,0,1,.742.737v4.023H81.3ZM73.826,67.917V70.03H84.55a.733.733,0,0,1,.563.257l2.649,3.092V72.031a23.7,23.7,0,0,0-.358-4.114Zm0-3.6h7.779a.737.737,0,0,0,.522-.215l2.984-2.953a23.437,23.437,0,0,1,1.981,5.281H73.826ZM92.294,83.775c-.878-1.723-1.967-3.87-3.048-6.581V72.031a25.163,25.163,0,1,0-47.171,12.2v.778a2.136,2.136,0,0,0-2.187,1.056,2.094,2.094,0,0,1-3.629,0,2.128,2.128,0,0,0-2.659-.924,11.979,11.979,0,0,0-3.012,1.737,2.131,2.131,0,0,0-.53,2.766,2.089,2.089,0,0,1-1.811,3.141h-.008a2.139,2.139,0,0,0-2.129,1.848,12.055,12.055,0,0,0,0,3.474,2.14,2.14,0,0,0,2.128,1.841h0a2.09,2.09,0,0,1,1.812,3.141,2.141,2.141,0,0,0,.531,2.773,12.217,12.217,0,0,0,3.006,1.73,2.086,2.086,0,0,0,.809.16,2.139,2.139,0,0,0,1.854-1.084,2.094,2.094,0,0,1,3.63,0,2.136,2.136,0,0,0,2.187,1.056v.466a.743.743,0,0,0,.742.744H75.786a.743.743,0,0,0,.742-.744v-4.468h7.594A5.132,5.132,0,0,0,89.246,98.6V92.982c2.887-.841,4.241-1.661,4.771-2.856.7-1.584-.213-3.377-1.723-6.351Z" transform="translate(0)" fill-rule="evenodd"/>
    </g>
  </g>
</svg>
