<svg xmlns="http://www.w3.org/2000/svg" xmlns:xlink="http://www.w3.org/1999/xlink" width="118" height="118" viewBox="0 0 118 118">
  <defs>
    <filter id="Trazado_982547" x="0" y="0" width="118" height="118" filterUnits="userSpaceOnUse">
      <feOffset dy="3" input="SourceAlpha"/>
      <feGaussianBlur stdDeviation="3" result="blur"/>
      <feFlood flood-opacity="0.161"/>
      <feComposite operator="in" in2="blur"/>
      <feComposite in="SourceGraphic"/>
    </filter>
  </defs>
  <g id="Grupo_1203043" data-name="Grupo 1203043" transform="translate(-321 -1341)">
    <g id="Grupo_1202047" data-name="Grupo 1202047" transform="translate(332.5 1349.5)">
      <g id="Grupo_1174813" data-name="Grupo 1174813" transform="translate(-2.5 -2.5)">
        <g id="Grupo_1201680" data-name="Grupo 1201680">
          <g id="Grupo_1201330" data-name="Grupo 1201330">
            <g id="Grupo_1172010" data-name="Grupo 1172010">
              <g id="Grupo_1171046" data-name="Grupo 1171046">
                <g id="Grupo_1148525" data-name="Grupo 1148525">
                  <g transform="matrix(1, 0, 0, 1, -9, -6)" filter="url(#Trazado_982547)">
                    <g id="Trazado_982547-2" data-name="Trazado 982547" transform="translate(9 6)" fill="#f3e6fd">
                      <path d="M 50 98.5 C 43.45188522338867 98.5 37.10042953491211 97.21787261962891 31.12207221984863 94.68923950195312 C 25.34691429138184 92.24655914306641 20.15997123718262 88.74931335449219 15.70532894134521 84.29468536376953 C 11.2506856918335 79.84004211425781 7.753442764282227 74.65309906005859 5.310757160186768 68.8779296875 C 2.782128572463989 62.89957046508789 1.5 56.54811477661133 1.5 50 C 1.5 43.45188522338867 2.782128572463989 37.10042953491211 5.310757160186768 31.12207221984863 C 7.753442764282227 25.34691429138184 11.2506856918335 20.15997123718262 15.70532894134521 15.70532894134521 C 20.15997123718262 11.2506856918335 25.34691429138184 7.753442764282227 31.12207221984863 5.310757160186768 C 37.10042953491211 2.782128572463989 43.45188522338867 1.5 50 1.5 C 56.54811477661133 1.5 62.89957046508789 2.782128572463989 68.8779296875 5.310757160186768 C 74.65309906005859 7.753442764282227 79.84004211425781 11.2506856918335 84.29468536376953 15.70532894134521 C 88.74931335449219 20.15997123718262 92.24655914306641 25.34691429138184 94.68923950195312 31.12207221984863 C 97.21787261962891 37.10042953491211 98.5 43.45188522338867 98.5 50 C 98.5 56.54811477661133 97.21787261962891 62.89957046508789 94.68923950195312 68.8779296875 C 92.24655914306641 74.65309906005859 88.74931335449219 79.84004211425781 84.29468536376953 84.29468536376953 C 79.84004211425781 88.74931335449219 74.65309906005859 92.24655914306641 68.8779296875 94.68923950195312 C 62.89957046508789 97.21787261962891 56.54811477661133 98.5 50 98.5 Z" stroke="none"/>
                      <path d="M 50 3 C 43.65372467041016 3 37.49886322021484 4.242263793945312 31.70639801025391 6.6922607421875 C 26.11003112792969 9.059326171875 21.08335113525391 12.44861602783203 16.76598358154297 16.76598358154297 C 12.44861602783203 21.08335113525391 9.059326171875 26.11003112792969 6.6922607421875 31.70639801025391 C 4.242263793945312 37.49886322021484 3 43.65372467041016 3 50 C 3 56.34627532958984 4.242263793945312 62.50113677978516 6.6922607421875 68.29360198974609 C 9.059326171875 73.88996887207031 12.44861602783203 78.91666412353516 16.76598358154297 83.23401641845703 C 21.08335113525391 87.55138397216797 26.11003112792969 90.940673828125 31.70639801025391 93.3077392578125 C 37.49886322021484 95.75773620605469 43.65372467041016 97 50 97 C 56.34627532958984 97 62.50113677978516 95.75773620605469 68.29360198974609 93.3077392578125 C 73.88996887207031 90.940673828125 78.91666412353516 87.55138397216797 83.23401641845703 83.23401641845703 C 87.55138397216797 78.91666412353516 90.940673828125 73.88996887207031 93.3077392578125 68.29360198974609 C 95.75773620605469 62.50113677978516 97 56.34627532958984 97 50 C 97 43.65372467041016 95.75773620605469 37.49886322021484 93.3077392578125 31.70639801025391 C 90.940673828125 26.11003112792969 87.55138397216797 21.08335113525391 83.23401641845703 16.76598358154297 C 78.91666412353516 12.44861602783203 73.88996887207031 9.059326171875 68.29360198974609 6.6922607421875 C 62.50113677978516 4.242263793945312 56.34627532958984 3 50 3 M 50 0 C 77.61424255371094 0 100 22.38577270507812 100 50 C 100 77.61424255371094 77.61424255371094 100 50 100 C 22.38577270507812 100 0 77.61424255371094 0 50 C 0 22.38577270507812 22.38577270507812 0 50 0 Z" stroke="none" fill="#951bf1"/>
                    </g>
                  </g>
                </g>
              </g>
            </g>
          </g>
        </g>
      </g>
    </g>
    <g id="diagram_4394629" transform="translate(349.914 1364.552)">
      <g id="Grupo_1202655" data-name="Grupo 1202655" transform="translate(1.43 33.088)">
        <path id="Trazado_1042397" data-name="Trazado 1042397" d="M37.437,286.922v-22.51a1.488,1.488,0,0,0-1.483-1.483h-6.49l-3.5-3.008a1.725,1.725,0,0,0-2.381-.131l-3.648,3.139h-6.49a1.488,1.488,0,0,0-1.483,1.483v22.51a1.488,1.488,0,0,0,1.483,1.483H35.954A1.488,1.488,0,0,0,37.437,286.922Z" transform="translate(-11.961 -259.375)" fill="#a7e9a6" fill-rule="evenodd"/>
      </g>
      <g id="Grupo_1202656" data-name="Grupo 1202656" transform="translate(7.246 42.403)">
        <path id="Trazado_1042398" data-name="Trazado 1042398" d="M73.641,342.158a.8.8,0,0,0,.8-.8v-3.29a.8.8,0,0,0-.8-.8H61.393a.8.8,0,0,0-.8.8v3.29a.8.8,0,0,0,.8.8Z" transform="translate(-60.595 -337.271)" fill="#375e7d" fill-rule="evenodd"/>
      </g>
      <g id="Grupo_1202657" data-name="Grupo 1202657" transform="translate(31.296 36.642)">
        <path id="Trazado_1042399" data-name="Trazado 1042399" d="M290.753,313.089v-22.51a1.488,1.488,0,0,0-1.483-1.483H266.76a1.488,1.488,0,0,0-1.483,1.483v6.49l-3.011,3.5a1.721,1.721,0,0,0-.127,2.378l3.138,3.651v6.49a1.488,1.488,0,0,0,1.483,1.483h22.509A1.488,1.488,0,0,0,290.753,313.089Z" transform="translate(-261.721 -289.096)" fill="#eb5468" fill-rule="evenodd"/>
      </g>
      <g id="Grupo_1202658" data-name="Grupo 1202658" transform="translate(40.826 42.658)">
        <path id="Trazado_1042400" data-name="Trazado 1042400" d="M341.414,340.2v3.29a.8.8,0,0,0,.8.8h12.244a.8.8,0,0,0,.8-.8V340.2a.8.8,0,0,0-.8-.8H342.212A.8.8,0,0,0,341.414,340.2Z" transform="translate(-341.414 -339.401)" fill="#375e7d" fill-rule="evenodd"/>
      </g>
      <g id="Grupo_1202659" data-name="Grupo 1202659" transform="translate(34.852 3.251)">
        <path id="Trazado_1042401" data-name="Trazado 1042401" d="M292.938,35.329h6.49l3.648,3.138a1.725,1.725,0,0,0,2.381-.131l3.5-3.008h6.49a1.488,1.488,0,0,0,1.483-1.483V11.336a1.488,1.488,0,0,0-1.483-1.483H292.938a1.488,1.488,0,0,0-1.483,1.483v22.51A1.488,1.488,0,0,0,292.938,35.329Z" transform="translate(-291.455 -9.853)" fill="#b1e4f9" fill-rule="evenodd"/>
      </g>
      <g id="Grupo_1202660" data-name="Grupo 1202660" transform="translate(0.897 3.251)">
        <path id="Trazado_1042402" data-name="Trazado 1042402" d="M36.114,23.7a1.721,1.721,0,0,0-.131-2.378l-3.008-3.5v-6.49a1.488,1.488,0,0,0-1.483-1.483H8.983A1.488,1.488,0,0,0,7.5,11.336v22.51a1.488,1.488,0,0,0,1.483,1.483H31.492a1.488,1.488,0,0,0,1.483-1.483v-6.49Z" transform="translate(-7.5 -9.853)" fill="#ffc269" fill-rule="evenodd"/>
      </g>
      <g id="Grupo_1202661" data-name="Grupo 1202661" transform="translate(6.688 9.517)">
        <path id="Trazado_1042403" data-name="Trazado 1042403" d="M69.777,66.347v-3.29a.8.8,0,0,0-.8-.8H56.731a.8.8,0,0,0-.8.8v3.29a.8.8,0,0,0,.8.8H68.975A.8.8,0,0,0,69.777,66.347Z" transform="translate(-55.933 -62.259)" fill="#375e7d" fill-rule="evenodd"/>
      </g>
      <g id="Grupo_1202662" data-name="Grupo 1202662" transform="translate(40.726 9.349)">
        <path id="Trazado_1042404" data-name="Trazado 1042404" d="M341.377,65.732h12.244a.8.8,0,0,0,.8-.8V61.647a.8.8,0,0,0-.8-.8H341.377a.8.8,0,0,0-.8.8v3.287A.8.8,0,0,0,341.377,65.732Z" transform="translate(-340.579 -60.849)" fill="#375e7d" fill-rule="evenodd"/>
      </g>
      <g id="Grupo_1202663" data-name="Grupo 1202663" transform="translate(15.784 9.517)">
        <path id="Trazado_1042405" data-name="Trazado 1042405" d="M135.941,62.26h-3.947a34.425,34.425,0,0,1,.647,4.887h3.3a.8.8,0,0,0,.8-.8v-3.29A.8.8,0,0,0,135.941,62.26Z" transform="translate(-131.994 -62.26)" fill="#2b4d66" fill-rule="evenodd"/>
      </g>
      <g id="Grupo_1202664" data-name="Grupo 1202664" transform="translate(13.736 3.251)">
        <path id="Trazado_1042406" data-name="Trazado 1042406" d="M120.868,21.006h-3.3q.067,1.089.069,2.206c0,.592-.014,1.177-.041,1.759a34.522,34.522,0,0,1-.416,3.944,30.314,30.314,0,0,1-1.769,6.415h10.616a1.488,1.488,0,0,0,1.483-1.483v-6.49l3.138-3.651a1.721,1.721,0,0,0-.131-2.378l-3.008-3.5v-6.49a1.488,1.488,0,0,0-1.483-1.483H114.873a28.847,28.847,0,0,1,2.048,6.267h3.947a.8.8,0,0,1,.8.8v3.29A.8.8,0,0,1,120.868,21.006Z" transform="translate(-114.873 -9.853)" fill="#ffa95f" fill-rule="evenodd"/>
      </g>
      <g id="Grupo_1202665" data-name="Grupo 1202665" transform="translate(48.121 9.349)">
        <path id="Trazado_1042407" data-name="Trazado 1042407" d="M402.424,60.849a32.331,32.331,0,0,1,1.039,4.883h4.608a.8.8,0,0,0,.8-.8V61.647a.8.8,0,0,0-.8-.8h-5.647Z" transform="translate(-402.424 -60.849)" fill="#2b4d66" fill-rule="evenodd"/>
      </g>
      <g id="Grupo_1202666" data-name="Grupo 1202666" transform="translate(45.454 3.251)">
        <path id="Trazado_1042408" data-name="Trazado 1042408" d="M382.787,15.951h5.647a.8.8,0,0,1,.8.8v3.286a.8.8,0,0,1-.8.8h-4.608a35.381,35.381,0,0,1,.3,3.968c.007.251.01.506.01.757,0,1.084-.048,2.144-.141,3.187a30.874,30.874,0,0,1-2.519,9.949,1.729,1.729,0,0,0,2.041-.358l3.5-3.008h6.49a1.488,1.488,0,0,0,1.483-1.483V11.336a1.488,1.488,0,0,0-1.483-1.483H380.12A25.679,25.679,0,0,1,382.787,15.951Z" transform="translate(-380.12 -9.853)" fill="#75cef8" fill-rule="evenodd"/>
      </g>
      <g id="Grupo_1202667" data-name="Grupo 1202667" transform="translate(49.966 42.658)">
        <path id="Trazado_1042409" data-name="Trazado 1042409" d="M421.75,339.4h-3.9a35.743,35.743,0,0,1,.207,3.878c0,.337,0,.674-.014,1.008h3.71a.8.8,0,0,0,.8-.8V340.2A.8.8,0,0,0,421.75,339.4Z" transform="translate(-417.848 -339.402)" fill="#2b4d66" fill-rule="evenodd"/>
      </g>
      <g id="Grupo_1202668" data-name="Grupo 1202668" transform="translate(46.232 36.642)">
        <path id="Trazado_1042410" data-name="Trazado 1042410" d="M390.358,295.112h3.9a.8.8,0,0,1,.8.8v3.29a.8.8,0,0,1-.8.8h-3.71a34.4,34.4,0,0,1-.33,3.964,31.855,31.855,0,0,1-.809,3.944,26.127,26.127,0,0,1-2.787,6.666h12.612a1.488,1.488,0,0,0,1.483-1.483v-22.51a1.488,1.488,0,0,0-1.483-1.483H389.129A32.761,32.761,0,0,1,390.358,295.112Z" transform="translate(-386.624 -289.096)" fill="#e5384f" fill-rule="evenodd"/>
      </g>
      <g id="Grupo_1202669" data-name="Grupo 1202669" transform="translate(16.128 42.403)">
        <path id="Trazado_1042411" data-name="Trazado 1042411" d="M139.834,341.359v-3.29a.8.8,0,0,0-.8-.8h-4.164a35.734,35.734,0,0,1,.372,4.887h3.792A.8.8,0,0,0,139.834,341.359Z" transform="translate(-134.872 -337.271)" fill="#2b4d66" fill-rule="evenodd"/>
      </g>
      <g id="Grupo_1202670" data-name="Grupo 1202670" transform="translate(13.13 33.089)">
        <path id="Trazado_1042412" data-name="Trazado 1042412" d="M117.766,269.5v3.29a.8.8,0,0,1-.8.8h-3.792v.255a35.394,35.394,0,0,1-.193,3.71,33.09,33.09,0,0,1-.647,3.944,27.826,27.826,0,0,1-2.529,6.921H122.1a1.488,1.488,0,0,0,1.483-1.483V264.42a1.488,1.488,0,0,0-1.483-1.483h-6.49l-3.5-3.008a1.735,1.735,0,0,0-2.12-.317A29.241,29.241,0,0,1,112.8,268.7h4.164a.8.8,0,0,1,.8.8Z" transform="translate(-109.806 -259.384)" fill="#7fdbae" fill-rule="evenodd"/>
      </g>
      <g id="Grupo_1202671" data-name="Grupo 1202671" transform="translate(0 2.354)">
        <path id="Trazado_1042413" data-name="Trazado 1042413" d="M30.039,14.115l-2.77-3.223V4.734a2.383,2.383,0,0,0-2.38-2.38H2.38A2.383,2.383,0,0,0,0,4.734v22.51a2.383,2.383,0,0,0,2.38,2.38h9.257a.9.9,0,1,0,0-1.794H2.38a.594.594,0,0,1-.586-.586V4.734a.594.594,0,0,1,.586-.586H24.889a.594.594,0,0,1,.586.586v6.49a.9.9,0,0,0,.217.585l3.008,3.5c.016.018.032.036.049.053a.831.831,0,0,1,.082,1.156l-3.138,3.651a.9.9,0,0,0-.217.585v6.49a.594.594,0,0,1-.586.586H15.636a.9.9,0,1,0,0,1.794h9.253a2.383,2.383,0,0,0,2.38-2.38V21.086l2.92-3.4a2.615,2.615,0,0,0-.151-3.574Z" transform="translate(0 -2.354)"/>
        <path id="Trazado_1042414" data-name="Trazado 1042414" d="M349.548,336.886V333.6a1.7,1.7,0,0,0-1.7-1.7H335.608a1.7,1.7,0,0,0-1.7,1.7v3.29a1.7,1.7,0,0,0,1.7,1.7h12.244A1.7,1.7,0,0,0,349.548,336.886Zm-1.794-.1H335.707v-3.093h12.047Z" transform="translate(-293.984 -292.494)"/>
        <path id="Trazado_1042415" data-name="Trazado 1042415" d="M357.8,405.921a.9.9,0,0,0,0,1.794h8.342a.9.9,0,0,0,0-1.794Z" transform="translate(-314.229 -357.663)"/>
        <path id="Trazado_1042416" data-name="Trazado 1042416" d="M337.6,440.7h13.173a.9.9,0,0,0,0-1.794H337.6a.9.9,0,1,0,0,1.794Z" transform="translate(-296.442 -386.7)"/>
        <path id="Trazado_1042417" data-name="Trazado 1042417" d="M67.038,329.771H54.79a1.7,1.7,0,0,0-1.7,1.7v3.29a1.7,1.7,0,0,0,1.7,1.7H67.038a1.7,1.7,0,0,0,1.7-1.7v-3.29A1.7,1.7,0,0,0,67.038,329.771Zm-.1,4.887H54.889v-3.093H66.939Z" transform="translate(-46.746 -290.619)"/>
        <path id="Trazado_1042418" data-name="Trazado 1042418" d="M85.332,405.585a.9.9,0,0,0,0-1.794H76.987a.9.9,0,0,0,0,1.794Z" transform="translate(-66.991 -355.788)"/>
        <path id="Trazado_1042419" data-name="Trazado 1042419" d="M69.957,436.772H56.784a.9.9,0,1,0,0,1.794H69.957a.9.9,0,1,0,0-1.794Z" transform="translate(-49.204 -384.825)"/>
        <path id="Trazado_1042420" data-name="Trazado 1042420" d="M308.843,2.354H286.334a2.383,2.383,0,0,0-2.38,2.38v22.51a2.383,2.383,0,0,0,2.38,2.38h6.157l3.4,2.922a2.586,2.586,0,0,0,1.693.632,2.682,2.682,0,0,0,1.883-.784l3.223-2.77h6.158a2.383,2.383,0,0,0,2.38-2.38V4.734a2.382,2.382,0,0,0-2.38-2.38Zm.586,24.89a.594.594,0,0,1-.586.586h-6.49a.9.9,0,0,0-.585.217l-3.5,3.008c-.018.016-.036.032-.053.049a.826.826,0,0,1-1.159.082l-3.648-3.138a.9.9,0,0,0-.585-.217h-6.49a.594.594,0,0,1-.586-.586V4.734a.594.594,0,0,1,.586-.586h22.509a.594.594,0,0,1,.586.586Z" transform="translate(-249.999 -2.354)"/>
        <path id="Trazado_1042421" data-name="Trazado 1042421" d="M282.662,281.6H260.152a2.383,2.383,0,0,0-2.38,2.38v6.158L255,293.357a2.615,2.615,0,0,0-.149,3.572l2.922,3.4v6.158a2.383,2.383,0,0,0,2.38,2.38H269.4a.9.9,0,1,0,0-1.794h-9.243a.594.594,0,0,1-.586-.586V300a.9.9,0,0,0-.217-.585l-3.14-3.653a.83.83,0,0,1,.08-1.154q.025-.025.049-.052l3.011-3.5a.9.9,0,0,0,.217-.585v-6.49a.594.594,0,0,1,.586-.586h22.509a.594.594,0,0,1,.586.586v22.51a.594.594,0,0,1-.586.586h-9.267a.9.9,0,0,0,0,1.794h9.267a2.383,2.383,0,0,0,2.38-2.38v-22.51A2.383,2.383,0,0,0,282.662,281.6Z" transform="translate(-223.817 -248.205)"/>
        <path id="Trazado_1042422" data-name="Trazado 1042422" d="M29.349,255.431H23.192l-3.223-2.77a2.621,2.621,0,0,0-3.576-.152L13,255.431H6.84a2.383,2.383,0,0,0-2.38,2.38v22.51a2.383,2.383,0,0,0,2.38,2.38H29.349a2.383,2.383,0,0,0,2.38-2.38v-22.51A2.383,2.383,0,0,0,29.349,255.431Zm.586,24.89a.594.594,0,0,1-.586.586H6.84a.594.594,0,0,1-.586-.586v-22.51a.594.594,0,0,1,.586-.586h6.49a.9.9,0,0,0,.585-.217l3.648-3.138a.826.826,0,0,1,1.159.082c.017.017.035.033.053.049l3.5,3.008a.9.9,0,0,0,.585.217h6.49a.594.594,0,0,1,.586.586Z" transform="translate(-3.927 -222.039)"/>
        <path id="Trazado_1042423" data-name="Trazado 1042423" d="M347.018,53.35H334.774a1.7,1.7,0,0,0-1.7,1.7v3.286a1.7,1.7,0,0,0,1.7,1.7h12.244a1.7,1.7,0,0,0,1.7-1.7V55.045A1.7,1.7,0,0,0,347.018,53.35Zm-.1,4.883H334.873v-3.09H346.92Z" transform="translate(-293.25 -47.252)"/>
        <path id="Trazado_1042424" data-name="Trazado 1042424" d="M365.312,129.163a.9.9,0,1,0,0-1.794h-8.342a.9.9,0,1,0,0,1.794Z" transform="translate(-313.495 -112.42)"/>
        <path id="Trazado_1042425" data-name="Trazado 1042425" d="M349.941,160.35H336.768a.9.9,0,0,0,0,1.794h13.173a.9.9,0,0,0,0-1.794Z" transform="translate(-295.708 -141.457)"/>
        <path id="Trazado_1042426" data-name="Trazado 1042426" d="M64.071,59.745v-3.29a1.7,1.7,0,0,0-1.7-1.7H50.128a1.7,1.7,0,0,0-1.7,1.7v3.29a1.7,1.7,0,0,0,1.7,1.7H62.372A1.7,1.7,0,0,0,64.071,59.745Zm-1.794-.1H50.227V56.554H62.277v3.093Z" transform="translate(-42.641 -48.493)"/>
        <path id="Trazado_1042427" data-name="Trazado 1042427" d="M72.325,128.779a.9.9,0,1,0,0,1.794h8.342a.9.9,0,1,0,0-1.794Z" transform="translate(-62.887 -113.661)"/>
        <path id="Trazado_1042428" data-name="Trazado 1042428" d="M52.122,163.554H65.295a.9.9,0,1,0,0-1.794H52.122a.9.9,0,0,0,0,1.794Z" transform="translate(-45.1 -142.698)"/>
      </g>
    </g>
  </g>
</svg>
